<svg width="115" height="24" viewBox="0 0 115 24" fill="none" xmlns="http://www.w3.org/2000/svg">
<g id="Group">
<path id="Vector" d="M27.3825 23.1587C26.1787 22.5969 25.247 21.8192 24.5874 20.8294C23.9277 19.8397 23.5737 18.7308 23.5215 17.5029H28.5788C28.631 18.2285 28.9254 18.8127 29.4732 19.2518C30.0173 19.6908 30.7068 19.9104 31.5453 19.9104C32.3839 19.9104 32.9839 19.7429 33.4274 19.4043C33.8709 19.0657 34.0908 18.6453 34.0908 18.1467C34.0908 17.5215 33.7852 17.0341 33.1777 16.6806C32.5702 16.3308 31.6199 15.955 30.3267 15.5532C29.0074 15.1513 27.9266 14.7532 27.0769 14.3513C26.2272 13.9494 25.5004 13.369 24.893 12.6025C24.2855 11.8397 23.9799 10.8536 23.9799 9.65177C23.9799 8.55037 24.2706 7.56061 24.8557 6.68247C25.4371 5.80433 26.2868 5.11596 27.4011 4.61735C28.5154 4.11503 29.8459 3.86572 31.3925 3.86572C32.9392 3.86572 34.1616 4.14107 35.2871 4.69177C36.4126 5.24247 37.2958 6.00154 37.9294 6.96526C38.5629 7.92898 38.9319 9.00061 39.0325 10.1764H33.938C33.7591 8.69921 32.9131 7.95875 31.3925 7.95875C30.6583 7.95875 30.0993 8.10386 29.7192 8.39037C29.3391 8.67688 29.149 9.04898 29.149 9.49921C29.149 10.0499 29.436 10.4815 30.0024 10.7941C30.5726 11.1067 31.4894 11.4527 32.7566 11.8285C34.0982 12.2304 35.2013 12.6248 36.0622 13.0118C36.9231 13.3987 37.6722 13.9904 38.3058 14.7792C38.9394 15.568 39.2561 16.5876 39.2561 17.8415C39.2561 19.6685 38.5778 21.1532 37.2213 22.2955C35.8647 23.4341 33.9715 24.0034 31.5379 24.0034C29.9652 24.0034 28.5788 23.7206 27.375 23.1587H27.3825Z" fill="#0F131A"/>
<path id="Vector_2" d="M59.3361 22.6305C57.8156 21.7151 56.6006 20.4835 55.6876 18.9282C54.7745 17.3765 54.3198 15.7096 54.3198 13.931C54.3198 12.1524 54.7745 10.4854 55.6876 8.93375C56.6006 7.38212 57.8156 6.14677 59.3361 5.23142C60.8567 4.31607 62.4927 3.8584 64.2406 3.8584C65.9885 3.8584 67.6246 4.31607 69.1451 5.23142C70.6657 6.14677 71.8806 7.3784 72.7937 8.93375C73.7068 10.4854 74.1614 12.1524 74.1614 13.931C74.1614 15.7096 73.7068 17.3765 72.7937 18.9282C71.8806 20.4835 70.6657 21.7151 69.1451 22.6305C67.6246 23.5458 65.9885 24.0035 64.2406 24.0035C62.4927 24.0035 60.8567 23.5458 59.3361 22.6305ZM67.6432 17.7635C68.5414 16.7626 68.9923 15.4826 68.9923 13.931C68.9923 12.3793 68.5414 11.0993 67.6432 10.0984C66.7451 9.09747 65.6084 8.59514 64.2406 8.59514C62.8729 8.59514 61.7399 9.09747 60.838 10.0984C59.9399 11.0993 59.4889 12.3793 59.4889 13.931C59.4889 15.4826 59.9399 16.7626 60.838 17.7635C61.7362 18.7644 62.8729 19.2668 64.2406 19.2668C65.6084 19.2668 66.7413 18.7644 67.6432 17.7635Z" fill="#0F131A"/>
<path id="Vector_3" d="M107.285 13.3692L115 23.5161H108.653L102.459 14.9506V23.5161H97.29V0.78125H102.459V12.2454L108.273 4.35334H114.165L107.285 13.3729V13.3692Z" fill="#0F131A"/>
<path id="Vector_4" d="M14.9757 15.0733V-0.00390625H20.1448V23.5161H14.9757L5.3903 8.92633V23.5161H0.221191V-0.00390625H5.3903L14.9757 15.0733V15.0733Z" fill="#0F131A"/>
<path id="Vector_5" d="M52.0872 19.0547C51.7742 19.1552 51.5431 19.1924 51.1704 19.1924C50.3356 19.1924 49.6834 18.9654 49.2138 18.5152C48.7442 18.065 48.5095 17.3878 48.5095 16.4873V8.8966H52.0872V4.34962H48.5095V0.78125H43.3404V4.35334H41.3428V8.90032H43.3404V17.0157C43.3404 19.1701 43.9478 20.8743 45.1665 22.1245C46.3814 23.3785 47.9542 24.0036 49.8809 24.0036C50.5592 24.0036 51.2673 23.9254 52.0909 23.7692V19.0585L52.0872 19.0547Z" fill="#0F131A"/>
<path id="Vector_6" d="M90.0675 16.3159C89.9445 16.6582 89.7134 17.0601 89.3855 17.5215C89.0575 17.9866 88.5991 18.3922 88.0177 18.7419C87.4364 19.0917 86.7506 19.2666 85.9643 19.2666C84.5965 19.2666 83.4598 18.7643 82.5617 17.7633C81.6598 16.7624 81.2126 15.4824 81.2126 13.9308C81.2126 12.3791 81.6635 11.0991 82.5617 10.0982C83.4598 9.09728 84.5965 8.59496 85.9643 8.59496C86.7506 8.59496 87.4326 8.76984 88.0177 9.11961C88.5991 9.46937 89.0575 9.87868 89.3855 10.3401C89.7134 10.8052 89.9333 11.2033 90.06 11.5494L94.6515 9.78938C94.372 9.13449 94.0142 8.48705 93.567 7.85821C92.7322 6.66752 91.6514 5.70379 90.3358 4.96333C89.0165 4.22659 87.5593 3.85449 85.9643 3.85449C84.2164 3.85449 82.5803 4.31217 81.0598 5.22751C79.5392 6.14286 78.3243 7.37449 77.4112 8.92984C76.4981 10.4815 76.0435 12.1484 76.0435 13.927C76.0435 15.7057 76.4981 17.3726 77.4112 18.9243C78.3243 20.4796 79.5392 21.7112 81.0598 22.6266C82.5803 23.5419 84.2164 23.9996 85.9643 23.9996C87.5593 23.9996 89.0165 23.6312 90.3358 22.8908C91.6514 22.1503 92.7284 21.1866 93.567 19.9959C94.0105 19.3633 94.3682 18.7196 94.6515 18.0647L90.0712 16.3084L90.0675 16.3159Z" fill="#0F131A"/>
</g>
</svg>
